REM MD5 e9ae04e68d348bf69ab1d532fc7ec5f8
FILE "Choro Q 3 (Japan).bin" BINARY
  TRACK 01 MODE2/2352
    INDEX 01 00:00:00
  TRACK 02 AUDIO
    INDEX 00 55:09:25
    INDEX 01 55:11:25
  TRACK 03 AUDIO
    INDEX 00 59:40:56
    INDEX 01 59:42:56
REM LEADOUT 64:30:58
